<?xml version="1.0" encoding="UTF-8"?>
<svg id="Layer_1" xmlns="http://www.w3.org/2000/svg" version="1.1" viewBox="0 0 24 24">
  <!-- Generator: Adobe Illustrator 30.2.1, SVG Export Plug-In . SVG Version: 2.1.1 Build 1)  -->
  <defs>
    <style>
      .st0 {
        fill: currentColor;
      }
    </style>
  </defs>
  <path d="M22.68,18.24L14.08,3.35c-.43-.74-1.23-1.2-2.08-1.2s-1.65.46-2.08,1.2l-2.83,4.91-.02.04L1.33,18.23c-.22.36-.33.79-.33,1.22,0,1.33,1.08,2.41,2.41,2.41h17.19c1.33,0,2.41-1.08,2.41-2.41,0-.43-.11-.85-.32-1.2ZM20.59,20.47H3.41c-.57,0-1.03-.46-1.03-1.03,0-.19.05-.36.14-.52L11.11,4.04c.18-.32.53-.52.89-.52s.71.2.89.52l8.59,14.88c.09.15.14.33.14.52,0,.57-.46,1.03-1.03,1.03Z"/>
  <g>
    <path class="st0" d="M15.77,9.02v-.02s-.02-.01-.02-.01l-2.85-4.94c-.18-.31-.51-.52-.89-.52s-.72.21-.89.52l-2.87,4.96c.29-.5.92-.67,1.41-.38.16.09.29.22.38.37l1.97,3.42.68,1.18h5.73l-2.65-4.58ZM10.23,8.88c-.12-.2-.27-.35-.47-.46-.18-.11-.4-.17-.62-.17-.07,0-.14,0-.21.02l2.38-4.12c.15-.25.41-.4.7-.4s.55.15.7.4l5.32,9.21h-5.2l-2.59-4.48Z"/>
    <path class="st0" d="M21.49,18.93l-3.07-5.33h-5.73l.21.36,2.87,4.96c.08.15.14.33.14.52,0,.57-.46,1.03-1.03,1.03h5.73c.57,0,1.03-.46,1.03-1.03,0-.19-.05-.36-.14-.52ZM20.59,20.24h-4.76c.18-.22.29-.5.29-.8,0-.21-.06-.43-.17-.63l-2.88-4.99h5.2l3.01,5.21c.07.12.11.26.11.4,0,.44-.36.8-.8.8Z"/>
    <path class="st0" d="M15.76,18.93l-2.78-4.81-.09-.15-.21-.36h-6.5c.36,0,.69.19.88.5l2.04,3.33.91,1.48s.01.01.01.02c.09.15.14.33.14.52,0,.57-.46,1.03-1.03,1.03h5.73c.57,0,1.03-.46,1.03-1.03,0-.19-.05-.36-.14-.52ZM14.87,20.24h-4.76c.18-.22.29-.5.29-.8,0-.2-.05-.4-.14-.57v-.03l-.08-.09-2.92-4.78c-.03-.05-.07-.1-.1-.15h5.39l3.01,5.21c.05.09.11.23.11.4,0,.44-.36.8-.8.8Z"/>
    <path class="st0" d="M10.03,18.93s0-.01-.01-.02l-.91-1.48-2.04-3.33c-.19-.3-.52-.5-.88-.5s-.71.2-.89.52l-2.78,4.81c-.09.15-.14.33-.14.52,0,.57.46,1.03,1.03,1.03h5.73c.57,0,1.03-.46,1.03-1.03,0-.19-.05-.36-.14-.52ZM9.13,20.24H3.41c-.44,0-.8-.36-.8-.8,0-.14.04-.28.11-.4l2.78-4.81c.15-.25.41-.4.7-.4s.54.14.68.39l2.95,4.81h0s.01.02.01.02c.07.12.11.26.11.4,0,.44-.36.8-.8.8Z"/>
    <path class="st0" d="M12,12.42l-1.97-3.42c-.09-.15-.21-.28-.38-.37-.49-.29-1.12-.12-1.41.38h0s-.03.05-.03.05l-2.63,4.54-.3.52c.19-.32.53-.52.89-.52h6.5l-.68-1.18ZM5.97,13.39l2.47-4.27c.15-.25.41-.4.7-.4.14,0,.28.04.4.11.13.07.22.16.3.29l2.46,4.25h-6.1c-.07,0-.14,0-.21.02Z"/>
  </g>
</svg>