<svg width="24" height="24" version="1.1" viewBox="0 0 24 24" xml:space="preserve" xmlns="http://www.w3.org/2000/svg"><path transform="matrix(1.0381 0 0 1.0381 -.4578 -.4518)" d="m12 2.35c-0.87386 0.12683-1.45 0.5796-1.8795 1.5152-2.7848 4.8353-5.586 9.6612-8.3671 14.499-0.80682 1.4596-0.14064 2.9653 1.5291 2.9828 5.8521-0.0016 11.705 0.01623 17.557-0.01131 1.6753-0.10114 2.2378-1.683 1.3388-3.0971-2.8944-5.0059-5.7763-10.019-8.6784-15.02-0.3812-0.38375-0.71006-0.81775-1.4998-0.86775zm0 1.1773c0.88348 0.011561 1.0973 0.99302 1.5146 1.5898 2.6743 4.6447 5.3722 9.2765 8.0328 13.929 0.38898 0.91204-0.59535 1.6049-1.4261 1.4286h-16.715c-1.0178 0.018117-1.2973-1.2543-0.68777-1.9049 2.8231-4.8792 5.6258-9.768 8.4628-14.638 0.18993-0.25354 0.50185-0.40775 0.81869-0.40464z" fill="currentColor"/><g fill="none" stroke="currentColor"><g stroke-width="1.015"><path d="m18.659 13.666h-5.9525l-0.70659-1.2276-2.0484-3.5473c-0.092783-0.15703-0.22126-0.29263-0.39255-0.38541-0.50675-0.29977-1.1634-0.12134-1.4632 0.39255l2.9763-5.1532c0.18557-0.32118 0.52816-0.5353 0.92786-0.5353 0.39969 0 0.74228 0.21412 0.92785 0.5353l2.962 5.1317 0.0066 0.014274 0.01427 0.021411z"/><path d="m21.992 19.732c0 0.5924-0.4782 1.0706-1.0706 1.0706h-5.9454c0.59241 0 1.0706-0.4782 1.0706-1.0706 0-0.19271-0.0571-0.37829-0.14274-0.5353l-2.9763-5.1532-0.22126-0.37828h5.9525l3.1904 5.5314c0.09278 0.15702 0.14274 0.34259 0.14274 0.5353z"/><path d="m16.047 19.732c0 0.5924-0.4782 1.0706-1.0706 1.0706h-5.9525c0.59241 0 1.0706-0.4782 1.0706-1.0706 0-0.19271-0.04995-0.37829-0.14275-0.5353 0-0.0066-0.00664-0.01427-0.014274-0.02141l-0.94213-1.5345-2.1198-3.4616c-0.19271-0.31404-0.5353-0.51388-0.91359-0.51388h6.7448l0.22126 0.37828 0.09069 0.15703 2.8856 4.9961c0.08565 0.15702 0.14274 0.34259 0.14274 0.5353z"/><path d="m10.094 19.732c0 0.5924-0.4782 1.0706-1.0706 1.0706h-5.9454c-0.5924 0-1.0706-0.4782-1.0706-1.0706 0-0.19271 0.04996-0.37829 0.14274-0.5353l2.8835-4.9961c0.19271-0.32832 0.54957-0.5353 0.92785-0.5353 0.37828 0 0.72087 0.19984 0.91359 0.51388l2.1198 3.4616 0.94213 1.5345c0.00664 0.0076 0.014274 0.01427 0.014274 0.02141 0.092777 0.15702 0.14275 0.34259 0.14275 0.5353z"/></g><path transform="matrix(1.0381 0 0 1.0381 -.4578 -.4518)" d="m12.681 13.599h-6.4971c-0.36438 0-0.70814 0.19938-0.89377 0.51564l0.29563-0.51564 2.6263-4.5445 0.0275-0.04125v-0.00733c0.28876-0.49502 0.92128-0.66689 1.4094-0.37814 0.165 0.089375 0.28876 0.22 0.37813 0.37126l1.9732 3.417z" stroke-width=".97772"/></g></svg>
