<?xml version="1.0" encoding="UTF-8"?><svg id="Layer_1" xmlns="http://www.w3.org/2000/svg" viewBox="0 0 256 256"><defs><style>.cls-1{fill:#9780e5;}.cls-1,.cls-2,.cls-3,.cls-4,.cls-5{stroke-width:0px;}.cls-2{fill:#512bd4;}.cls-3{fill:#7455dd;}.cls-4{fill:#b9aaee;}.cls-5{fill:#dcd5f6;}</style></defs><path class="cls-2" d="m28.004,240C12.564,240,.004,227.44.004,212c0-5.032,1.328-9.928,3.84-14.168l66.704-115.536.272-.408,32.928-57.096c5-8.64,14.288-14,24.256-14s19.256,5.36,24.248,13.992l100,173.208c2.416,4.072,3.744,8.968,3.744,14,0,15.44-12.56,28-28,28l-199.992.008Z"/><path class="cls-3" d="m202.644,144h-66.72l-7.92-13.76-22.96-39.76c-1.04-1.76-2.48-3.28-4.4-4.32-5.68-3.36-13.04-1.36-16.4,4.4l33.36-57.76c2.08-3.6,5.92-6,10.4-6s8.32,2.4,10.4,6l33.2,57.52.08.16.16.24,30.8,53.28Z"/><path class="cls-1" d="m240.004,212c0,6.64-5.36,12-12,12h-66.64c6.64,0,12-5.36,12-12,0-2.16-.64-4.24-1.6-6l-33.36-57.76-2.48-4.24h66.72l35.76,62c1.04,1.76,1.6,3.84,1.6,6Z"/><path class="cls-4" d="m173.364,212c0,6.64-5.36,12-12,12h-66.72c6.64,0,12-5.36,12-12,0-2.16-.56-4.24-1.6-6,0-.08-.08-.16-.16-.24l-10.56-17.2-23.76-38.8c-2.16-3.52-6-5.76-10.24-5.76h75.6l2.48,4.24,1.016,1.76,32.344,56c.96,1.76,1.6,3.84,1.6,6Z"/><path class="cls-5" d="m106.644,212c0,6.64-5.36,12-12,12H28.004c-6.64,0-12-5.36-12-12,0-2.16.56-4.24,1.6-6l32.32-56c2.16-3.68,6.16-6,10.4-6s8.08,2.24,10.24,5.76l23.76,38.8,10.56,17.2c.08.08.16.16.16.24,1.04,1.76,1.6,3.84,1.6,6Z"/><path class="cls-1" d="m135.924,144H60.324c-4.24,0-8.24,2.32-10.4,6l3.44-6,30.56-52.88.32-.48v-.08c3.36-5.76,10.72-7.76,16.4-4.4,1.92,1.04,3.36,2.56,4.4,4.32l22.96,39.76,7.92,13.76Z"/></svg>
