<svg width="32" height="32" viewBox="0 0 32 32" fill="none" xmlns="http://www.w3.org/2000/svg">
<path d="M3.5 30C1.57 30 0 28.43 0 26.5C0 25.871 0.166 25.259 0.48 24.729L8.818 10.287L8.852 10.236L12.968 3.099C13.593 2.019 14.754 1.349 16 1.349C17.246 1.349 18.407 2.019 19.031 3.098L31.531 24.749C31.833 25.258 31.999 25.87 31.999 26.499C31.999 28.429 30.429 29.999 28.499 29.999L3.5 30Z" fill="#512BD4"/>
<path d="M25.33 18H16.99L16 16.28L13.13 11.31C13 11.09 12.82 10.9 12.58 10.77C11.87 10.35 10.95 10.6 10.53 11.32L14.7 4.10001C14.96 3.65001 15.44 3.35001 16 3.35001C16.56 3.35001 17.04 3.65001 17.3 4.10001L21.45 11.29L21.46 11.31L21.48 11.34L25.33 18Z" fill="#7455DD"/>
<path d="M30 26.5C30 27.33 29.33 28 28.5 28H20.17C21 28 21.67 27.33 21.67 26.5C21.67 26.23 21.59 25.97 21.47 25.75L17.3 18.53L16.99 18H25.33L29.8 25.75C29.93 25.97 30 26.23 30 26.5Z" fill="#9780E5"/>
<path d="M21.67 26.5C21.67 27.33 21 28 20.17 28H11.83C12.66 28 13.33 27.33 13.33 26.5C13.33 26.23 13.26 25.97 13.13 25.75C13.13 25.74 13.12 25.73 13.11 25.72L11.79 23.57L8.82004 18.72C8.55004 18.28 8.07004 18 7.54004 18H16.99L17.3 18.53L17.427 18.75L21.47 25.75C21.59 25.97 21.67 26.23 21.67 26.5Z" fill="#B9AAEE"/>
<path d="M13.33 26.5C13.33 27.33 12.66 28 11.83 28H3.5C2.67 28 2 27.33 2 26.5C2 26.23 2.07 25.97 2.2 25.75L6.24 18.75C6.51 18.29 7.01 18 7.54 18C8.07 18 8.55 18.28 8.82 18.72L11.79 23.57L13.11 25.72C13.12 25.73 13.13 25.74 13.13 25.75C13.26 25.97 13.33 26.23 13.33 26.5Z" fill="#DCD5F6"/>
<path d="M16.99 18H7.53999C7.00999 18 6.50999 18.29 6.23999 18.75L6.66999 18L10.49 11.39L10.53 11.33V11.32C10.95 10.6 11.87 10.35 12.58 10.77C12.82 10.9 13 11.09 13.13 11.31L16 16.28L16.99 18Z" fill="#9780E5"/>
</svg>
