<svg width="256" height="256" viewBox="0 0 256 256" fill="none" xmlns="http://www.w3.org/2000/svg">
<path d="M28 240C12.56 240 0 227.44 0 212C0 206.968 1.328 202.072 3.84 197.832L70.544 82.296L70.816 81.888L103.744 24.792C108.744 16.152 118.032 10.792 128 10.792C137.968 10.792 147.256 16.152 152.248 24.784L252.248 197.992C254.664 202.064 255.992 206.96 255.992 211.992C255.992 227.432 243.432 239.992 227.992 239.992L28 240Z" fill="#512BD4"/>
<path d="M202.64 144H135.92L128 130.24L105.04 90.48C104 88.72 102.56 87.2 100.64 86.16C94.96 82.8 87.6 84.8 84.24 90.56L117.6 32.8C119.68 29.2 123.52 26.8 128 26.8C132.48 26.8 136.32 29.2 138.4 32.8L171.6 90.32L171.68 90.48L171.84 90.72L202.64 144Z" fill="#7455DD"/>
<path d="M240 212C240 218.64 234.64 224 228 224H161.36C168 224 173.36 218.64 173.36 212C173.36 209.84 172.72 207.76 171.76 206L138.4 148.24L135.92 144H202.64L238.4 206C239.44 207.76 240 209.84 240 212Z" fill="#9780E5"/>
<path d="M173.36 212C173.36 218.64 168 224 161.36 224H94.6399C101.28 224 106.64 218.64 106.64 212C106.64 209.84 106.08 207.76 105.04 206C105.04 205.92 104.96 205.84 104.88 205.76L94.3199 188.56L70.5599 149.76C68.3999 146.24 64.5599 144 60.3199 144H135.92L138.4 148.24L139.416 150L171.76 206C172.72 207.76 173.36 209.84 173.36 212Z" fill="#B9AAEE"/>
<path d="M106.64 212C106.64 218.64 101.28 224 94.64 224H28C21.36 224 16 218.64 16 212C16 209.84 16.56 207.76 17.6 206L49.92 150C52.08 146.32 56.08 144 60.32 144C64.56 144 68.4 146.24 70.56 149.76L94.32 188.56L104.88 205.76C104.96 205.84 105.04 205.92 105.04 206C106.08 207.76 106.64 209.84 106.64 212Z" fill="#DCD5F6"/>
<path d="M135.92 144H60.32C56.08 144 52.08 146.32 49.92 150L53.36 144L83.92 91.12L84.24 90.64V90.56C87.6 84.8 94.96 82.8 100.64 86.16C102.56 87.2 104 88.72 105.04 90.48L128 130.24L135.92 144Z" fill="#9780E5"/>
</svg>
